<svg width="68" height="30" viewBox="0 0 68 30" fill="none" xmlns="http://www.w3.org/2000/svg">
<g clip-path="url(#clip0_34_86)">
<path d="M28.2368 29.597L0.35437 29.6069V29.5398C0.35437 29.5029 0.39884 29.2636 0.453191 29.0081C0.507542 28.7525 0.592042 28.346 0.640966 28.1047C0.689888 27.8634 0.773537 27.4534 0.826848 27.1936C0.88016 26.9337 0.968736 26.5009 1.02368 26.2318C1.07863 25.9627 1.16471 25.5375 1.21497 25.2869C1.26523 25.0364 1.34913 24.6263 1.40143 24.3758C1.45373 24.1252 1.54289 23.6924 1.59957 23.414C1.65624 23.1356 1.7424 22.7104 1.79102 22.4692C1.83965 22.2279 1.91692 21.8558 1.96274 21.6424C2.00856 21.4289 2.06698 21.1404 2.09255 21.0012C2.11813 20.862 2.20088 20.452 2.27645 20.0901C2.35203 19.7281 2.43546 19.3181 2.46185 19.1789C2.48825 19.0397 2.57206 18.6297 2.64808 18.2678C2.72411 17.9059 2.80763 17.4959 2.83369 17.3567C2.85974 17.2175 2.94372 16.8075 3.02032 16.4455C3.09692 16.0836 3.17959 15.6812 3.20403 15.5513C3.22848 15.4213 3.29543 15.0873 3.35282 14.8089C3.41021 14.5305 3.5188 14.0066 3.59413 13.6446C3.66946 13.2827 3.79831 12.6525 3.88046 12.2442C3.96261 11.8359 4.06078 11.3499 4.09862 11.1643C4.13645 10.9787 4.20487 10.6446 4.25065 10.4219C4.29644 10.1992 4.37958 9.79677 4.43541 9.52764C4.49125 9.25852 4.58208 8.81814 4.63728 8.54902C4.69247 8.27989 4.77753 7.86229 4.82628 7.62101C4.87504 7.37972 4.95826 6.9773 5.01121 6.72674C5.06416 6.47618 5.15524 6.0358 5.21361 5.74811C5.27198 5.46043 5.36977 5.02005 5.4309 4.76949C5.49204 4.51892 5.57848 4.21521 5.62298 4.09457C5.66749 3.97393 5.79036 3.71241 5.89603 3.51341L6.08816 3.1516L6.26282 2.92286C6.35889 2.79705 6.5304 2.59825 6.64396 2.48108C6.75752 2.36391 6.94914 2.1876 7.06978 2.08928C7.19042 1.99096 7.36506 1.85827 7.45786 1.79441C7.55066 1.73055 7.73288 1.61876 7.86281 1.54598C7.99273 1.4732 8.17495 1.37789 8.26776 1.33419C8.36056 1.29048 8.55038 1.21072 8.68958 1.15693C8.82878 1.10314 9.09453 1.01299 9.28013 0.956584C9.46573 0.90018 9.81413 0.815162 10.0543 0.767656C10.2946 0.720149 10.6742 0.656697 10.898 0.626652L11.3049 0.572024L39.2042 0.561402L67.1035 0.550781V0.617847C67.1035 0.654733 67.0588 0.894015 67.0041 1.14958C66.9493 1.40515 66.8579 1.84204 66.8009 2.12044C66.7439 2.39885 66.6607 2.80126 66.616 3.01471C66.5713 3.22815 66.4866 3.63816 66.4279 3.92584C66.3692 4.21352 66.2788 4.65391 66.2271 4.90447C66.1754 5.15503 66.0917 5.56504 66.0411 5.81561C65.9904 6.06617 65.9062 6.47618 65.8539 6.72674C65.8016 6.9773 65.7204 7.37213 65.6736 7.60413C65.6268 7.83613 65.542 8.25374 65.4852 8.53214C65.4284 8.81054 65.3372 9.25093 65.2825 9.51077C65.2278 9.77061 65.1445 10.173 65.0974 10.405C65.0502 10.637 64.9654 11.0546 64.9088 11.333C64.8523 11.6114 64.7613 12.0518 64.7066 12.3117C64.6519 12.5715 64.5704 12.9663 64.5255 13.1891C64.4805 13.4118 64.396 13.8294 64.3376 14.1171C64.2792 14.4048 64.1941 14.8224 64.1485 15.0451C64.1028 15.2678 64.0213 15.6626 63.9673 15.9225C63.9133 16.1823 63.821 16.6303 63.7622 16.918C63.7033 17.2057 63.6191 17.6157 63.5751 17.8291C63.531 18.0425 63.4484 18.445 63.3917 18.7234C63.3349 19.0018 63.2446 19.4422 63.191 19.702C63.1374 19.9618 63.0533 20.3718 63.0041 20.6131C62.9549 20.8544 62.8695 21.272 62.8142 21.5411C62.7589 21.8103 62.6686 22.2506 62.6135 22.5198C62.5584 22.7889 62.4759 23.1913 62.4301 23.414C62.3843 23.6368 62.3005 24.0468 62.244 24.3252C62.1874 24.6036 62.0954 25.0423 62.0396 25.3001L61.938 25.7689L61.8169 26.0931C61.7503 26.2715 61.6502 26.5085 61.5945 26.6199C61.5387 26.7312 61.4252 26.9277 61.3421 27.0565C61.2591 27.1853 61.1433 27.3503 61.0849 27.4232C61.0265 27.4961 60.8506 27.6843 60.6941 27.8414L60.4095 28.1271L60.1356 28.3217C59.985 28.4287 59.8227 28.5376 59.7751 28.5636C59.7274 28.5896 59.5459 28.6822 59.3718 28.7694C59.1976 28.8567 58.9516 28.9676 58.8251 29.0161C58.6986 29.0645 58.448 29.147 58.2683 29.1993C58.0886 29.2517 57.896 29.3032 57.8403 29.3139C57.7846 29.3245 57.5913 29.3645 57.4108 29.4027C57.2302 29.441 56.8658 29.4981 56.6009 29.5297L56.1193 29.5871L28.2368 29.597ZM18.3167 22.3848H19.0423L19.0628 22.3314C19.0741 22.302 19.0833 22.233 19.0833 22.178C19.0833 22.123 19.1072 21.9231 19.1364 21.7337C19.1657 21.5442 19.2343 21.1084 19.2889 20.765C19.3435 20.4216 19.4253 19.9053 19.4706 19.6176C19.5159 19.3299 19.5713 18.9617 19.5936 18.7993C19.6158 18.6369 19.643 18.504 19.654 18.504C19.665 18.504 19.7119 18.5758 19.7583 18.6635L19.8426 18.823L20.0296 19.0114L20.2167 19.1999L20.447 19.2921L20.6773 19.3843L20.9517 19.4199L21.2261 19.4554L21.5745 19.4341L21.9229 19.4127L22.3 19.3151L22.6772 19.2175L22.8797 19.1251C22.991 19.0742 23.1885 18.9634 23.3184 18.8788L23.5546 18.7249L23.7748 18.5048C23.896 18.3837 24.0668 18.1896 24.1545 18.0734C24.2421 17.9572 24.3139 17.8536 24.3139 17.8432C24.3139 17.8329 24.3569 17.7609 24.4096 17.6833C24.4622 17.6057 24.57 17.3904 24.649 17.2048C24.728 17.0192 24.8515 16.6851 24.9235 16.4624L25.0543 16.0575L25.1219 15.7067C25.159 15.5138 25.2069 15.1949 25.2282 14.998L25.2669 14.6401L25.2445 14.3364L25.2222 14.0327L25.1517 13.729L25.0813 13.4253L24.9673 13.1979L24.8534 12.9705L24.6332 12.7371L24.413 12.5037L24.1525 12.3691L23.8921 12.2344L23.6052 12.1657L23.3184 12.0971L23.0315 12.076L22.7447 12.055L22.4252 12.0917L22.1056 12.1284L21.8448 12.195L21.584 12.2616L21.3575 12.3664C21.2329 12.4241 21.0516 12.5221 20.9546 12.5841C20.8576 12.6462 20.7575 12.7176 20.7322 12.7428C20.7069 12.768 20.6463 12.8147 20.5976 12.8465L20.509 12.9045L20.571 12.6081C20.605 12.445 20.6335 12.2927 20.6343 12.2695L20.6356 12.2273H20.0169H19.3982L19.2897 12.9107C19.2301 13.2865 19.1359 13.8674 19.0804 14.2014C19.0249 14.5355 18.9413 15.0366 18.8945 15.315C18.8477 15.5934 18.7643 16.087 18.7091 16.4118C18.6539 16.7366 18.5627 17.2529 18.5064 17.5591C18.4501 17.8654 18.3676 18.3134 18.3231 18.5546C18.2786 18.7959 18.1948 19.2515 18.1369 19.567C18.079 19.8825 17.986 20.3837 17.9302 20.6806C17.8744 20.9776 17.7836 21.4483 17.7284 21.7267C17.6732 22.0051 17.6197 22.2671 17.6096 22.3089L17.5911 22.3848H18.3167ZM21.4404 18.4831L21.1586 18.5001L20.9745 18.4676L20.7903 18.4351L20.6033 18.3497L20.4162 18.2643L20.2856 18.1395L20.1549 18.0147L20.0795 17.846C20.038 17.7532 19.9847 17.5955 19.9611 17.4957L19.9181 17.3141L19.9353 17.0232L19.9525 16.7324L20.0395 16.2768C20.0873 16.0262 20.1732 15.5555 20.2303 15.2307C20.2874 14.9059 20.3739 14.43 20.4225 14.1731L20.5108 13.7061L20.7043 13.5451C20.8107 13.4565 20.9792 13.3379 21.0788 13.2814L21.2599 13.1787L21.4961 13.1055L21.7323 13.0324L22.036 13.0146L22.3397 12.9967L22.587 13.0495L22.8343 13.1022L23.0089 13.1825L23.1834 13.2629L23.3297 13.4101L23.4761 13.5572L23.555 13.713C23.5985 13.7987 23.6595 13.9664 23.6906 14.0857L23.7472 14.3027L23.7298 14.9438L23.7125 15.585L23.6258 15.964C23.5782 16.1724 23.4874 16.4913 23.4242 16.6727L23.3092 17.0023L23.1684 17.2692C23.091 17.416 22.9715 17.6143 22.903 17.71C22.8345 17.8056 22.7253 17.9296 22.6603 17.9853C22.5954 18.0411 22.4866 18.1283 22.4186 18.1791L22.2949 18.2714L22.0085 18.3688L21.7221 18.4662L21.4404 18.4831ZM28.4477 19.4109L28.8189 19.4151L29.1901 19.3812C29.3943 19.3626 29.7284 19.3239 29.9325 19.2951C30.1367 19.2663 30.4894 19.202 30.7163 19.152L31.1289 19.0613L31.1494 18.9092C31.1607 18.8255 31.207 18.5766 31.2524 18.3559L31.3348 17.9546L31.3166 17.9364L31.2984 17.9182L31.1723 17.9792C31.1029 18.0127 30.8869 18.0926 30.6922 18.1567L30.3382 18.2734L29.9666 18.3454L29.5951 18.4173L29.0045 18.4185L28.414 18.4196L28.2115 18.355C28.1002 18.3194 27.9364 18.2543 27.8475 18.2104L27.686 18.1304L27.5527 18.01L27.4194 17.8896L27.3154 17.7078L27.2114 17.526L27.1462 17.298L27.081 17.07L27.0806 16.6481L27.0801 16.2262L27.138 15.8498L27.1959 15.4734L27.7037 15.4496L28.2115 15.4259L30.0887 15.438L31.9658 15.45L32.0225 15.2096C32.0537 15.0773 32.1013 14.804 32.1284 14.6022L32.1776 14.2352L32.1787 13.9264L32.1797 13.6177L32.1263 13.3873L32.0728 13.1568L31.9844 13.0042C31.9358 12.9203 31.8502 12.7986 31.7941 12.7339C31.738 12.6692 31.6379 12.5779 31.5716 12.5311C31.5053 12.4843 31.3752 12.4056 31.2824 12.3562L31.1136 12.2665L30.8188 12.1955L30.524 12.1244L30.1608 12.0897L29.7976 12.055L29.4601 12.0769L29.1226 12.0989L28.7177 12.1767L28.3127 12.2544L28.0597 12.3556C27.9205 12.4113 27.7079 12.5128 27.5872 12.5812C27.4666 12.6496 27.2995 12.7609 27.216 12.8286C27.1325 12.8962 26.9879 13.0278 26.8947 13.121C26.8014 13.2141 26.6635 13.3814 26.5882 13.4928C26.5129 13.6041 26.3975 13.8015 26.3317 13.9314C26.2658 14.0614 26.1801 14.2436 26.1411 14.3364C26.1021 14.4292 26.0313 14.619 25.9836 14.7582C25.936 14.8974 25.8612 15.1632 25.8173 15.3488C25.7735 15.5344 25.7134 15.8399 25.6838 16.0277L25.63 16.3692L25.6305 16.8714L25.631 17.3735L25.6822 17.5929C25.7105 17.7135 25.7644 17.8958 25.8021 17.9978C25.8398 18.0999 25.9096 18.2518 25.9571 18.3353C26.0046 18.4188 26.1061 18.5533 26.1826 18.6341C26.2591 18.715 26.3977 18.8376 26.4905 18.9067C26.5833 18.9758 26.7485 19.0729 26.8576 19.1226L27.056 19.2129L27.3326 19.2798C27.4848 19.3166 27.7144 19.3602 27.8429 19.3767C27.9714 19.3931 28.2436 19.4085 28.4477 19.4109ZM29.0834 14.657C28.1491 14.657 27.3847 14.6503 27.3847 14.6421C27.3847 14.634 27.4246 14.5163 27.4733 14.3806C27.522 14.2449 27.6076 14.043 27.6635 13.9319L27.765 13.7298L27.9883 13.5078L28.2115 13.2858L28.4309 13.1809C28.5515 13.1232 28.7109 13.0604 28.7852 13.0413C28.8594 13.0222 29.072 12.9969 29.2576 12.985L29.5951 12.9635L29.8542 12.9968L30.1134 13.0301L30.3017 13.1163L30.49 13.2025L30.5933 13.3139C30.6502 13.3752 30.7179 13.4654 30.7438 13.5144L30.791 13.6035L30.8221 13.8012L30.8533 13.999L30.8176 14.328L30.782 14.657H29.0834ZM39.1791 19.411L39.5505 19.4152L39.9721 19.3652C40.204 19.3377 40.5127 19.2922 40.6581 19.264C40.8035 19.2358 41.0388 19.1799 41.1811 19.1397C41.3234 19.0995 41.4522 19.056 41.4672 19.0431C41.4823 19.0302 41.5225 18.877 41.5566 18.7028C41.5907 18.5285 41.6336 18.2948 41.652 18.1834C41.6704 18.0721 41.6799 17.975 41.6732 17.9677C41.6664 17.9604 41.6415 17.9698 41.6178 17.9886C41.5942 18.0074 41.4286 18.0771 41.2499 18.1435L40.9249 18.2642L40.4622 18.3538L39.9995 18.4435L39.6061 18.43L39.2126 18.4166L38.9892 18.3391L38.7657 18.2616L38.593 18.1106L38.4203 17.9595L38.3058 17.7509L38.1913 17.5423L38.1367 17.2632L38.0822 16.9841L38.0825 16.622L38.0828 16.2599L38.1491 15.8212L38.2154 15.3825L38.2856 15.1463C38.3241 15.0164 38.3678 14.8645 38.3826 14.8089C38.3973 14.7532 38.4592 14.5937 38.5201 14.4545C38.581 14.3153 38.6895 14.1002 38.7614 13.9764L38.892 13.7514L39.0524 13.5852L39.2129 13.419L39.3828 13.3136L39.5527 13.2082L39.7708 13.141C39.8908 13.1041 40.1029 13.0561 40.2421 13.0344L40.4952 12.9949L40.8664 13.0136L41.2376 13.0322L41.6763 13.12L42.115 13.2078L42.2934 13.2744C42.3916 13.311 42.4762 13.3409 42.4814 13.3409C42.4866 13.3409 42.5102 13.2156 42.5337 13.0625C42.5572 12.9094 42.5991 12.6575 42.6268 12.5027C42.6544 12.3479 42.6704 12.2146 42.6622 12.2065C42.6541 12.1983 42.5222 12.1774 42.3692 12.1599C42.2162 12.1425 41.8003 12.1115 41.4449 12.0911L40.7989 12.0539L40.3434 12.0889L39.8878 12.1239L39.5503 12.1948L39.2129 12.2657L38.9955 12.3526C38.876 12.4004 38.7009 12.4867 38.6065 12.5443C38.512 12.602 38.3918 12.6795 38.3393 12.7166C38.2868 12.7537 38.1275 12.8986 37.9854 13.0385L37.7269 13.2928L37.5826 13.5042C37.5033 13.6204 37.366 13.8628 37.2776 14.0429L37.1168 14.3702L36.9936 14.7245C36.9258 14.9194 36.8312 15.2383 36.7833 15.4332L36.6963 15.7875L36.6647 16.1081L36.6331 16.4287L36.6334 16.8505L36.6337 17.2723L36.6656 17.5177L36.6975 17.7631L36.7986 18.0155L36.8996 18.2679L37.0164 18.4504L37.1331 18.6329L37.3188 18.8156L37.5044 18.9983L37.7008 19.1021L37.8971 19.2059L38.1551 19.2776C38.297 19.317 38.502 19.3622 38.6107 19.3781C38.7193 19.3939 38.9754 19.4088 39.1797 19.411H39.1791ZM44.7301 19.3986L45.1856 19.3855L45.4725 19.3121L45.7593 19.2387L45.9449 19.1509C46.047 19.1027 46.214 19.0074 46.3161 18.9392C46.4182 18.8711 46.5762 18.7415 46.6672 18.6512C46.7583 18.561 46.8933 18.407 46.9673 18.3091C47.0412 18.2112 47.1062 18.1355 47.1116 18.1409C47.1171 18.1464 47.1001 18.3024 47.0738 18.4877C47.0476 18.673 47.0258 18.9195 47.0254 19.0355L47.0248 19.2464H47.6441H48.2635L48.2824 18.7656L48.3013 18.2847L48.3897 17.6604C48.4383 17.317 48.5168 16.8083 48.5642 16.5299C48.6115 16.2515 48.6938 15.7807 48.7471 15.4838C48.8003 15.1868 48.8846 14.7236 48.9345 14.4545L49.0251 13.9652L49.0281 13.5426L49.0312 13.1199L48.9356 12.9246L48.84 12.7292L48.7104 12.6048L48.5809 12.4804L48.3681 12.3726L48.1553 12.2648L47.8382 12.1942L47.5211 12.1237L47.0845 12.0905L46.6479 12.0573L46.0855 12.092C45.7762 12.1112 45.3409 12.149 45.1182 12.176L44.7132 12.2252L44.4373 12.2262L44.1613 12.2273L44.1211 12.4213C44.099 12.5281 44.0377 12.7816 43.9847 12.9848C43.9318 13.188 43.8934 13.3591 43.8994 13.3651C43.9054 13.3711 44.053 13.3376 44.2274 13.2906C44.4018 13.2437 44.7723 13.1665 45.0507 13.1191L45.5569 13.0329L46.0125 13.0141L46.468 12.9953L46.7615 13.0468L47.0549 13.0982L47.2508 13.1949L47.4466 13.2916L47.5563 13.455L47.666 13.6185L47.6644 13.8762L47.6629 14.1339L47.6048 14.4167L47.5466 14.6996L46.3324 14.7039L45.1182 14.7083L44.7208 14.8173C44.5022 14.8772 44.2602 14.9568 44.1829 14.9941C44.1057 15.0314 44.0284 15.0619 44.0112 15.0619C43.9941 15.0619 43.864 15.134 43.7223 15.2222L43.4646 15.3824L43.2617 15.5849C43.1501 15.6963 43.0075 15.8634 42.9448 15.9562C42.8821 16.049 42.7803 16.2429 42.7185 16.387L42.6062 16.6491L42.5546 16.9438L42.5031 17.2385V17.5477V17.8569L42.5523 18.1143L42.6016 18.3717L42.693 18.5396C42.7432 18.632 42.8355 18.7672 42.8979 18.8402L43.0115 18.9729L43.2134 19.0955L43.4152 19.2181L43.6462 19.2835C43.7733 19.3195 43.9667 19.363 44.076 19.3803L44.2747 19.4116L44.7303 19.3986L44.7301 19.3986ZM45.1519 18.455L44.8819 18.469L44.7031 18.4235C44.6048 18.3985 44.4556 18.3426 44.3715 18.2994L44.2187 18.2208L44.1353 18.1217C44.0895 18.0672 44.0194 17.9601 43.9796 17.8837L43.9073 17.7447L43.8931 17.4203L43.879 17.0959L43.9362 16.8992C43.9676 16.7909 44.0414 16.6032 44.1002 16.4818L44.207 16.2613L44.4116 16.0581L44.6161 15.855L44.8334 15.7504L45.0507 15.6458L45.3206 15.5816L45.5906 15.5175H46.4342H47.2779L47.3313 15.5396L47.3846 15.5617L47.3397 15.8264C47.315 15.9721 47.2561 16.2355 47.2088 16.4118C47.1614 16.5881 47.0779 16.8473 47.0231 16.9878C46.9684 17.1282 46.9235 17.2524 46.9235 17.2638C46.9235 17.2751 46.8681 17.3774 46.8003 17.4912L46.6771 17.6981L46.4747 17.8986C46.3634 18.0089 46.2601 18.0991 46.2451 18.0991C46.2301 18.0991 46.1619 18.1371 46.0935 18.1835L45.9691 18.2679L45.6955 18.3544L45.4219 18.4409L45.1519 18.455ZM56.1361 19.4106L56.4567 19.4147L56.7604 19.3654C56.9275 19.3383 57.1401 19.2946 57.2329 19.2683C57.3257 19.2421 57.4927 19.1739 57.6041 19.1168L57.8066 19.0131L57.9807 18.8598L58.1549 18.7065L58.3384 18.4618C58.4393 18.3273 58.5306 18.1944 58.5414 18.1666L58.561 18.1159L58.544 18.2847C58.5346 18.3775 58.5136 18.5293 58.4973 18.6221C58.481 18.7149 58.4576 18.8934 58.4453 19.0186L58.423 19.2464H59.085H59.7469V19.0186V18.7909L59.8478 17.9303C59.9033 17.4571 59.9853 16.8269 60.0301 16.5299C60.0749 16.2329 60.144 15.8077 60.1837 15.585C60.2234 15.3623 60.2937 14.9599 60.3399 14.6907C60.3862 14.4216 60.4697 13.9509 60.5255 13.6446C60.5814 13.3384 60.6707 12.8524 60.7241 12.5648C60.7775 12.2771 60.8605 11.8291 60.9085 11.5693C60.9566 11.3094 61.0426 10.8539 61.0997 10.5569C61.1569 10.2599 61.2403 9.84232 61.2852 9.62888C61.3301 9.41544 61.3668 9.22941 61.3667 9.21549V9.19019H60.6445H59.9222L59.9009 9.4011C59.8892 9.5171 59.8339 9.90053 59.778 10.2532C59.7222 10.6058 59.6312 11.1677 59.5757 11.5018C59.5203 11.8359 59.4669 12.1598 59.457 12.2217L59.4391 12.3342L59.3821 12.3099C59.3507 12.2966 59.1808 12.2495 59.0045 12.2052L58.6839 12.1247L58.2452 12.0905L57.8065 12.0564L57.4353 12.091L57.0641 12.1256L56.7266 12.2109L56.3892 12.2962L56.0686 12.4525L55.748 12.6089L55.5118 12.7838L55.2756 12.9587L55.0716 13.1774C54.9594 13.2977 54.7973 13.4967 54.7114 13.6196L54.5552 13.843L54.3717 14.2247C54.2708 14.4346 54.1481 14.7127 54.0989 14.8426C54.0497 14.9725 53.963 15.2605 53.9062 15.4826L53.8029 15.8864L53.752 16.4106L53.7011 16.9348L53.7393 17.3567L53.7776 17.7785L53.8227 17.9303C53.8476 18.0139 53.9 18.1627 53.9392 18.261L54.0104 18.4398L54.1403 18.6157L54.2702 18.7916L54.4186 18.913L54.5669 19.0345L54.7694 19.1351C54.8807 19.1904 55.0676 19.2618 55.1845 19.2939C55.3015 19.3259 55.4913 19.3644 55.6063 19.3794C55.7214 19.3943 55.9598 19.4084 56.1361 19.4106H56.1361ZM56.7115 18.4532L56.4567 18.4667L56.2848 18.4358C56.1902 18.4188 56.0388 18.3731 55.9484 18.3344L55.784 18.2639L55.6457 18.1506L55.5074 18.0372L55.4046 17.8404L55.3018 17.6435L55.255 17.4242L55.2081 17.2048L55.2121 16.7661L55.2161 16.3274L55.2705 15.9393L55.3249 15.5513L55.4094 15.2813C55.4559 15.1328 55.4942 14.9927 55.4945 14.97C55.4948 14.9473 55.5407 14.8258 55.5965 14.7C55.6523 14.5743 55.7456 14.3803 55.8038 14.2689C55.862 14.1576 55.9707 13.984 56.0455 13.8831C56.1202 13.7823 56.2533 13.6305 56.3413 13.5457C56.4293 13.4609 56.5693 13.3497 56.6524 13.2986L56.8034 13.2056L57.0688 13.1138L57.3341 13.022L57.8909 13.0216H58.4477L58.7683 13.1106C58.9446 13.1595 59.1319 13.2162 59.1843 13.2366L59.2798 13.2738L59.2611 13.3664C59.2509 13.4173 59.2108 13.6413 59.172 13.864C59.1333 14.0867 59.0569 14.5119 59.0023 14.8089C58.9477 15.1058 58.8638 15.5538 58.8158 15.8044C58.7679 16.0549 58.6985 16.3738 58.6616 16.513C58.6246 16.6522 58.5726 16.845 58.5458 16.9415C58.5191 17.0379 58.4554 17.205 58.4043 17.3127C58.3532 17.4204 58.2638 17.5769 58.2056 17.6604C58.1474 17.7439 58.049 17.8596 57.9869 17.9175C57.9249 17.9754 57.7905 18.0782 57.6884 18.1461L57.5028 18.2694L57.2346 18.3545L56.9663 18.4397L56.7115 18.4532ZM7.04607 19.2464H7.86601L7.92483 18.8837C7.95719 18.6841 8.02038 18.3007 8.06526 18.0316C8.11014 17.7625 8.19366 17.2613 8.25088 16.918C8.30809 16.5746 8.39385 16.0659 8.44146 15.7875C8.48907 15.5091 8.56472 15.0772 8.60957 14.8278C8.65442 14.5783 8.69962 14.3657 8.71002 14.3553L8.72894 14.3364H10.9337H13.1384L13.1629 14.3609L13.1873 14.3854L13.1491 14.5802C13.1281 14.6874 13.0659 15.0181 13.0109 15.315C12.9559 15.612 12.8635 16.1131 12.8055 16.4287C12.7475 16.7442 12.6636 17.1922 12.6191 17.4242C12.5746 17.6562 12.4845 18.1421 12.419 18.504C12.3534 18.8659 12.2999 19.181 12.3001 19.2042L12.3004 19.2464H13.1237H13.947L13.9834 19.0355C14.0035 18.9195 14.0357 18.7107 14.0551 18.5715C14.0745 18.4323 14.1211 18.1362 14.1588 17.9135C14.1965 17.6907 14.2718 17.2504 14.3262 16.9348C14.3805 16.6193 14.4715 16.0802 14.5284 15.7369C14.5852 15.3935 14.6695 14.8924 14.7157 14.6233C14.762 14.3541 14.8443 13.8986 14.8988 13.6109C14.9532 13.3232 15.0439 12.8373 15.1003 12.531C15.1567 12.2248 15.2411 11.7616 15.288 11.5018C15.3349 11.2419 15.4203 10.7712 15.4779 10.4557C15.5355 10.1401 15.6082 9.77188 15.6394 9.63732L15.6963 9.39266H14.8627H14.0291L14.0064 9.55295C13.994 9.64111 13.9537 9.88788 13.9169 10.1013C13.8802 10.3148 13.8133 10.6944 13.7684 10.945C13.7234 11.1955 13.6413 11.6739 13.5858 12.008C13.5304 12.342 13.4597 12.7843 13.4288 12.9907L13.3725 13.3661L12.1488 13.3908L10.9251 13.4156L9.90017 13.3913C9.33644 13.3779 8.87208 13.3643 8.86826 13.3611C8.86444 13.3578 8.88364 13.2267 8.91093 13.0696C8.93821 12.9126 8.98983 12.6398 9.02564 12.4635C9.06145 12.2872 9.12933 11.9379 9.17649 11.6874C9.22364 11.4368 9.27705 11.1255 9.29518 10.9956C9.31331 10.8657 9.35131 10.6493 9.37961 10.5147C9.40792 10.3801 9.46164 10.0967 9.499 9.88484C9.53635 9.67298 9.57615 9.47556 9.58744 9.44615L9.60796 9.39266H8.78108H7.95421L7.90125 9.68794C7.87211 9.85034 7.83328 10.0819 7.81493 10.2026C7.79659 10.3232 7.735 10.7104 7.67807 11.0631C7.62114 11.4157 7.53709 11.9396 7.4913 12.2273C7.4455 12.515 7.36211 13.0389 7.30598 13.3915C7.24985 13.7442 7.15724 14.2909 7.10017 14.6064C7.04311 14.9219 6.96049 15.3699 6.91658 15.6019C6.87267 15.8339 6.78899 16.2743 6.73062 16.5805C6.67226 16.8868 6.58711 17.3195 6.54141 17.5423C6.4957 17.765 6.44518 18.0231 6.42913 18.1159C6.41308 18.2087 6.36084 18.4764 6.31306 18.7107C6.26526 18.9451 6.22616 19.1615 6.22616 19.1916V19.2464H7.04607ZM16.123 19.2464H16.8488L16.8693 19.193C16.8806 19.1637 16.8898 19.0867 16.8898 19.0219C16.8898 18.9572 16.9354 18.6205 16.9912 18.2738C17.047 17.9271 17.1392 17.3626 17.1961 17.0192C17.2529 16.6758 17.3369 16.1747 17.3827 15.9056C17.4285 15.6365 17.5099 15.1885 17.5636 14.9101C17.6174 14.6317 17.6999 14.1989 17.7469 13.9483C17.794 13.6978 17.8866 13.2211 17.9527 12.889C18.0188 12.5569 18.0811 12.2719 18.0911 12.2556L18.1095 12.226L17.3754 12.2351L16.6414 12.2442L16.5803 12.6829C16.5466 12.9242 16.4731 13.4025 16.4169 13.7459C16.3607 14.0892 16.2756 14.6131 16.2279 14.9101C16.1802 15.2071 16.097 15.6854 16.043 15.9731C15.989 16.2608 15.9063 16.7012 15.8591 16.9517C15.812 17.2023 15.7274 17.6427 15.6712 17.9303C15.6149 18.218 15.5395 18.5977 15.5035 18.774C15.4675 18.9503 15.4288 19.1287 15.4176 19.1705L15.3971 19.2464H16.123ZM33.0996 19.2464H33.8201L33.8417 18.9416C33.8536 18.7739 33.8944 18.436 33.9323 18.1907C33.9703 17.9454 34.0479 17.4562 34.1049 17.1036C34.1619 16.7509 34.2678 16.164 34.3403 15.7992C34.4127 15.4344 34.4947 15.0719 34.5223 14.9935C34.55 14.9151 34.5726 14.8302 34.5726 14.8048C34.5726 14.7793 34.6268 14.6408 34.693 14.4969C34.7592 14.3529 34.8826 14.1326 34.9672 14.0071L35.121 13.7791L35.3269 13.5884L35.5328 13.3978L35.7866 13.2766L36.0405 13.1553L36.4286 13.1573L36.8167 13.1594L37.0075 13.2164C37.1124 13.2477 37.2073 13.2734 37.2184 13.2734C37.2295 13.2734 37.2385 13.2375 37.2385 13.1937C37.2385 13.1498 37.2765 12.9276 37.3229 12.6997C37.3693 12.4719 37.4072 12.2759 37.4072 12.2641C37.4072 12.2524 37.2971 12.2093 37.1626 12.1684C37.028 12.1275 36.842 12.0846 36.7492 12.0731L36.5805 12.0523L36.3611 12.0911C36.2405 12.1124 36.0611 12.1596 35.9625 12.1958C35.8639 12.232 35.7011 12.3142 35.6007 12.3784C35.5003 12.4426 35.3441 12.5678 35.2537 12.6565C35.1632 12.7452 35.011 12.9241 34.9155 13.0541C34.82 13.184 34.7201 13.3206 34.6935 13.3578L34.6452 13.4253L34.6746 13.2903C34.6907 13.216 34.7356 12.9731 34.7744 12.7503C34.8132 12.5276 34.853 12.3188 34.8629 12.2863L34.8809 12.2273H34.2374H33.594V12.3086C33.594 12.3534 33.556 12.6229 33.5096 12.9076C33.4632 13.1923 33.3866 13.6682 33.3395 13.9652C33.2924 14.2622 33.2087 14.7785 33.1536 15.1125C33.0985 15.4466 33.0148 15.925 32.9677 16.1755C32.9205 16.4261 32.8367 16.8665 32.7816 17.1542C32.7264 17.4418 32.6347 17.9126 32.5779 18.2003C32.5211 18.488 32.4531 18.8277 32.4269 18.9553C32.4006 19.0828 32.3791 19.2005 32.3791 19.2168V19.2464L33.0996 19.2464ZM50.2026 19.2464H50.9393V19.021V18.7955L51.0242 18.2364C51.0709 17.9289 51.1479 17.4419 51.1954 17.1542C51.2428 16.8665 51.302 16.5021 51.3268 16.3443C51.3517 16.1865 51.4175 15.8449 51.4731 15.585C51.5287 15.3252 51.5982 15.0442 51.6275 14.9607C51.6568 14.8772 51.6809 14.7896 51.6812 14.766C51.6815 14.7424 51.7443 14.5908 51.8208 14.429L51.9598 14.135L52.1433 13.8912L52.3267 13.6475L52.5275 13.4965C52.6379 13.4135 52.8155 13.3034 52.9221 13.2517L53.1159 13.1579L53.5377 13.1608L53.9595 13.1637L54.1256 13.217L54.2916 13.2703L54.3196 13.253L54.3476 13.2357L54.349 13.128C54.3498 13.0688 54.3859 12.8484 54.4293 12.6383L54.5082 12.2563L54.4195 12.2216C54.3707 12.2025 54.2548 12.1629 54.162 12.1337L53.9933 12.0806L53.6896 12.0813L53.3859 12.0821L53.1384 12.1692L52.8909 12.2563L52.705 12.3683L52.5192 12.4804L52.2775 12.7335L52.0359 12.9866L51.9061 13.1829C51.8347 13.2909 51.7718 13.3744 51.7664 13.3685C51.761 13.3626 51.7998 13.1376 51.8527 12.8685C51.9055 12.5994 51.9494 12.345 51.9502 12.3032L51.9517 12.2273H51.3274H50.7031V12.2488C50.7031 12.2606 50.672 12.477 50.6339 12.7297C50.5959 12.9824 50.5195 13.47 50.4642 13.8134C50.4089 14.1567 50.3181 14.711 50.2625 15.0451C50.2069 15.3792 50.1231 15.8575 50.0762 16.1081C50.0294 16.3586 49.9461 16.799 49.8913 17.0867C49.8364 17.3744 49.7463 17.8376 49.691 18.116C49.6357 18.3944 49.5624 18.7626 49.5282 18.9343L49.4659 19.2464L50.2026 19.2464ZM17.5503 11.0117L17.7552 11.0125L17.918 10.957L18.0809 10.9015L18.225 10.7553L18.3692 10.609L18.4451 10.4142L18.521 10.2194L18.5238 9.93259L18.5265 9.64575L18.459 9.53375L18.3915 9.42175L18.274 9.34899L18.1565 9.27624H17.9028L17.6491 9.27624L17.4764 9.35357L17.3036 9.43089L17.2034 9.53832L17.1031 9.64575L17.0244 9.83136L16.9456 10.017L16.9308 10.3061L16.9159 10.5952L16.9892 10.7389L17.0625 10.8825L17.2039 10.9468L17.3454 11.011L17.5503 11.0117Z" fill="#B3131B"/>
</g>
<defs>
<clipPath id="clip0_34_86">
<rect width="67.4916" height="30" fill="white"/>
</clipPath>
</defs>
</svg>
